<svg xmlns="http://www.w3.org/2000/svg" width="24.35" height="22.649" viewBox="0 0 24.35 22.649">
  <path id="패스_11339" data-name="패스 11339" d="M1825.823-280.313a1.81,1.81,0,0,1-1.644-1.053,1.821,1.821,0,0,1-.143-1.017l.638-4.244a8.875,8.875,0,0,1-2.9-6.414c0-5.471,5.462-9.921,12.175-9.921s12.175,4.45,12.175,9.921-5.461,9.921-12.175,9.921a14.147,14.147,0,0,1-1.427-.078l-5.955,2.723A1.794,1.794,0,0,1,1825.823-280.313Zm8.13-20.846c-5.718,0-10.371,3.641-10.371,8.117a7.206,7.206,0,0,0,2.651,5.4l.371.325-.782,5.2,6.409-2.927.249.028a12.989,12.989,0,0,0,1.475.093c5.719,0,10.371-3.642,10.371-8.117S1839.671-301.159,1833.952-301.159Z" transform="translate(-1821.777 302.963)" fill="#7666d1"/>
</svg>
