<svg id="그룹_3212" data-name="그룹 3212" xmlns="http://www.w3.org/2000/svg" width="39.646" height="61.179" viewBox="0 0 39.646 61.179">
  <path id="패스_2261" data-name="패스 2261" d="M12.6,83.8h0a3.484,3.484,0,0,0-3.5,3.449v15.729a3.475,3.475,0,0,0,3.449,3.449H12.6a3.475,3.475,0,0,0,3.449-3.449V87.249A3.475,3.475,0,0,0,12.6,83.8Z" transform="translate(-4.915 -45.249)" fill="#ddd"/>
  <path id="패스_2262" data-name="패스 2262" d="M32.2,45.049h0a3.455,3.455,0,0,0,3.449,3.5l13.89.092a3.445,3.445,0,0,0,3.449-3.449v-.046a3.445,3.445,0,0,0-3.449-3.449L35.649,41.6A3.445,3.445,0,0,0,32.2,45.049Z" transform="translate(-17.39 -22.458)" fill="#9b81b5"/>
  <path id="패스_2263" data-name="패스 2263" d="M33.7,71.8h0a3.484,3.484,0,0,0-3.5,3.449V90.979a3.475,3.475,0,0,0,3.449,3.449H33.7a3.475,3.475,0,0,0,3.449-3.449V75.249A3.445,3.445,0,0,0,33.7,71.8Z" transform="translate(-16.31 -38.768)" fill="#ddd"/>
  <path id="패스_2264" data-name="패스 2264" d="M37.2,107.8v2.622a3.449,3.449,0,1,1-6.9,0v-2.254A8.579,8.579,0,0,0,37.2,107.8Z" transform="translate(-16.364 -58.211)" fill="#e4e684"/>
  <path id="패스_2265" data-name="패스 2265" d="M16.1,119.8v2.622a3.449,3.449,0,1,1-6.9,0v-2.254A8.225,8.225,0,0,0,16.1,119.8Z" transform="translate(-4.969 -64.692)" fill="#e4e684"/>
  <path id="패스_2266" data-name="패스 2266" d="M64.3,41.7h2.622a3.472,3.472,0,0,1-.046,6.945H64.622A8.685,8.685,0,0,0,64.3,41.7Z" transform="translate(-34.727 -22.512)" fill="#006837"/>
  <path id="패스_2267" data-name="패스 2267" d="M15.724,63.541l6.715-3.863A3.664,3.664,0,0,0,24.325,56.6v-18.9c0-2.9-3.587-4.645-6.3-3.081l-9.75,5.611A6.105,6.105,0,0,0,5.1,45.42V58.344C5.1,63.265,11.125,66.208,15.724,63.541Z" transform="translate(-2.754 -18.367)" fill="#ab95c4"/>
  <circle id="타원_523" data-name="타원 523" cx="9.934" cy="9.934" r="9.934" transform="translate(1.886 4.838)" fill="#e4e684"/>
  <path id="패스_2268" data-name="패스 2268" d="M36.188,35.9l4.185,4.369L34.9,39.993Z" transform="translate(-18.849 -19.38)" fill="#fbb03b"/>
  <path id="패스_2269" data-name="패스 2269" d="M26.12,35.739h0a.923.923,0,0,0,.92-.92v-2.3a.923.923,0,0,0-.92-.92h0a.923.923,0,0,0-.92.92v2.3A.923.923,0,0,0,26.12,35.739Z" transform="translate(-13.61 -17.057)"/>
  <path id="패스_2270" data-name="패스 2270" d="M39.22,31.739h0a.923.923,0,0,0,.92-.92v-2.3a.923.923,0,0,0-.92-.92h0a.923.923,0,0,0-.92.92v2.3A.923.923,0,0,0,39.22,31.739Z" transform="translate(-20.685 -14.897)"/>
  <g id="그룹_2330" data-name="그룹 2330" transform="translate(1.38 0)">
    <path id="패스_2271" data-name="패스 2271" d="M15.234,6.98a15.23,15.23,0,0,0-4.691-5.427A8.114,8.114,0,0,0,6.679-.011,4.076,4.076,0,0,0,3,1.691c.782-.506,1.748.138,2.392.736A23.333,23.333,0,0,1,8.565,6.014a21.031,21.031,0,0,0,1.748,2.254,4.359,4.359,0,0,0,2.438,1.38A2.509,2.509,0,0,0,15.234,8.59a1.731,1.731,0,0,0-.644-2.438" transform="translate(-3 0.02)" fill="#e4e684"/>
  </g>
  <g id="그룹_2331" data-name="그룹 2331" transform="translate(0 4.185)">
    <path id="패스_2272" data-name="패스 2272" d="M12.188,16.079A15.231,15.231,0,0,0,7.5,10.652,7.679,7.679,0,0,0,3.633,9.088,3.9,3.9,0,0,0,0,10.79c.782-.506,1.748.092,2.392.736a23.332,23.332,0,0,1,3.173,3.587,21.031,21.031,0,0,0,1.748,2.254,4.359,4.359,0,0,0,2.438,1.38,2.509,2.509,0,0,0,2.484-1.058,1.731,1.731,0,0,0-.644-2.438" transform="translate(0 -9.079)" fill="#e4e684"/>
  </g>
  <g id="그룹_2333" data-name="그룹 2333" transform="translate(20.927 12.738)">
    <circle id="타원_524" data-name="타원 524" cx="9.06" cy="9.06" r="9.06" transform="translate(0 3.553)" fill="#5247b5"/>
    <g id="그룹_2332" data-name="그룹 2332" transform="translate(8.831)">
      <path id="패스_2273" data-name="패스 2273" d="M64.7,37.9c.966-7.129,4.737-9.382,9.52-10.21.092,0,.184-.046.276.046.092.046.092.184.092.276a9.854,9.854,0,0,1-2.53,6.715A9.716,9.716,0,0,1,64.7,37.9" transform="translate(-64.7 -27.675)" fill="#96cf55"/>
    </g>
    <path id="패스_2274" data-name="패스 2274" d="M49.3,54.71s6.669,3.035,11.36-.6c0,0,4.645-4.139,3.633-9.612,0,0,4.185,5.841-1.518,11.636C62.73,56.09,56.061,62.023,49.3,54.71Z" transform="translate(-47.552 -36.762)" fill="#393587"/>
  </g>
  <path id="패스_2275" data-name="패스 2275" d="M8.681,56.862h0a3.453,3.453,0,0,0,3.081,3.771l14.3,1.426a3.453,3.453,0,0,0,3.771-3.081h0a3.453,3.453,0,0,0-3.081-3.771l-14.3-1.426A3.453,3.453,0,0,0,8.681,56.862Z" transform="translate(-4.679 -29.028)" fill="#9b81b5"/>
  <path id="패스_2276" data-name="패스 2276" d="M41.822,56.3l2.576.276a3.464,3.464,0,1,1-.644,6.9l-2.254-.23A8.348,8.348,0,0,0,41.822,56.3Z" transform="translate(-22.413 -30.397)" fill="#006837"/>
</svg>
